<svg xmlns="http://www.w3.org/2000/svg" width="40" height="40"><g fill="none" fill-rule="evenodd"><circle cx="20" cy="20" r="20" fill="#FFF"/><path fill="#0076B7" fill-rule="nonzero" d="M14.477 30H10.33V16.647h4.147V30zM12.4 14.826c-1.325 0-2.401-1.098-2.401-2.424a2.402 2.402 0 014.802 0c0 1.326-1.075 2.424-2.4 2.424zM29.996 30h-4.138v-6.5c0-1.55-.031-3.536-2.156-3.536-2.155 0-2.486 1.683-2.486 3.424V30h-4.142V16.647h3.977v1.822h.058c.554-1.05 1.906-2.157 3.923-2.157 4.196 0 4.968 2.764 4.968 6.353V30h-.004z"/></g></svg>