<svg xmlns="http://www.w3.org/2000/svg" width="40" height="40"><g fill="none" fill-rule="evenodd"><circle cx="20" cy="20" r="20" fill="#FFF"/><path fill="#39579A" fill-rule="nonzero" d="M30 11.103v17.79c0 .611-.496 1.103-1.103 1.103H23.8v-7.742h2.598l.389-3.017h-2.991v-1.929c0-.875.24-1.469 1.495-1.469h1.598v-2.7a21.487 21.487 0 00-2.33-.121c-2.304 0-3.884 1.406-3.884 3.99v2.229h-2.607v3.017h2.607V30h-9.571A1.105 1.105 0 0110 28.897V11.103c0-.607.496-1.103 1.103-1.103h17.79c.611 0 1.107.496 1.107 1.103z"/></g></svg>