<svg xmlns="http://www.w3.org/2000/svg" width="40" height="40"><defs><radialGradient id="a" cx="16.143%" cy="100%" r="122.239%" fx="16.143%" fy="100%"><stop offset="0%" stop-color="#FEDA75"/><stop offset="25.781%" stop-color="#FA7E1F"/><stop offset="51.175%" stop-color="#D62A76"/><stop offset="80.126%" stop-color="#962FBF"/><stop offset="100%" stop-color="#4F5BD5"/></radialGradient></defs><g fill="none" fill-rule="evenodd"><circle cx="20" cy="20" r="20" fill="#FFF"/><path fill="url(#a)" fill-rule="nonzero" d="M20.002 14.872A5.12 5.12 0 0014.876 20a5.12 5.12 0 005.126 5.128A5.12 5.12 0 0025.13 20a5.12 5.12 0 00-5.127-5.128zm0 8.462A3.34 3.34 0 0116.67 20a3.337 3.337 0 013.333-3.334A3.337 3.337 0 0123.335 20a3.34 3.34 0 01-3.333 3.334zm6.532-8.671c0 .664-.535 1.196-1.195 1.196a1.196 1.196 0 111.196-1.196zm3.396 1.213c-.076-1.602-.442-3.02-1.615-4.19-1.17-1.17-2.588-1.535-4.19-1.616-1.65-.093-6.6-.093-8.25 0-1.597.076-3.016.442-4.19 1.611-1.173 1.17-1.534 2.589-1.615 4.19-.093 1.652-.093 6.601 0 8.253.076 1.602.442 3.02 1.615 4.19 1.174 1.17 2.588 1.535 4.19 1.616 1.65.093 6.6.093 8.25 0 1.602-.076 3.02-.442 4.19-1.616 1.169-1.17 1.534-2.588 1.615-4.19.093-1.652.093-6.596 0-8.248zm-2.133 10.02a3.375 3.375 0 01-1.9 1.9c-1.317.523-4.44.402-5.895.402-1.454 0-4.582.116-5.894-.402a3.375 3.375 0 01-1.9-1.9c-.523-1.317-.402-4.441-.402-5.896s-.116-4.583.401-5.895a3.375 3.375 0 011.901-1.901c1.316-.523 4.44-.402 5.894-.402 1.455 0 4.582-.116 5.894.402a3.375 3.375 0 011.901 1.9c.522 1.317.402 4.441.402 5.896s.12 4.583-.402 5.895z"/></g></svg>