<svg xmlns="http://www.w3.org/2000/svg" width="40" height="40"><g fill="none" fill-rule="evenodd"><circle cx="20" cy="20" r="20" fill="#FFF"/><path fill="red" fill-rule="nonzero" d="M31.52 14.503a2.875 2.875 0 00-2.034-2.024C27.692 12 20.5 12 20.5 12s-7.192 0-8.986.479a2.875 2.875 0 00-2.033 2.024C9 16.29 9 20.016 9 20.016s0 3.727.48 5.513c.265.985 1.044 1.729 2.034 1.992C13.308 28 20.5 28 20.5 28s7.192 0 8.986-.479c.99-.263 1.769-1.007 2.033-1.992.481-1.786.481-5.513.481-5.513s0-3.726-.48-5.513zM18.147 23.4v-6.767l6.011 3.383-6.011 3.384z"/></g></svg>